# xmcd
#
# Track frame offsets: 
#        150
#        14970
#        32900
#        44590
#        56453
#        68455
#        77744
#        89862
#        106809
#        119020
#        132562
#        145559
#        169267
#        186679
#        196425
#        210008
#        221122
#        234789
#
# Disc length: 3408 seconds
#
# Revision: 0
# Processed by: cddbd v1.5.2PL0 Copyright (c) Steve Scherf et al.
# Submitted via: ExactAudioCopy v0.99pb5
#
DISCID=100d4e12
DTITLE=Amália Rodrigues - Coraçao Independente-2
DYEAR=2010
DGENRE=Latin
TTITLE0=Estranha forma de vida
TTITLE1=Primavera
TTITLE2=Alfama
TTITLE3=Meia noite e uma guitarra
TTITLE4=si,si,si
TTITLE5=É ou não é
TTITLE6=Coimbra
TTITLE7=Fado malhoa
TTITLE8=Don solidon
TTITLE9=The nearness of you
TTITLE10=Fria claridade
TTITLE11=Abandono
TTITLE12=Canzone per ti
TTITLE13=Meu amor é marinheiro
TTITLE14=O rapaz da camisola verde
TTITLE15=Vou dar de beber á dor
TTITLE16=fadinho da ti Maria Benta
TTITLE17=Maldição
EXTD=
EXTT0=
EXTT1=
EXTT2=
EXTT3=
EXTT4=
EXTT5=
EXTT6=
EXTT7=
EXTT8=
EXTT9=
EXTT10=
EXTT11=
EXTT12=
EXTT13=
EXTT14=
EXTT15=
EXTT16=
EXTT17=
PLAYORDER=
